<svg xmlns="http://www.w3.org/2000/svg" viewBox="0 0 652.64 521.4">
  <defs>
    <style>
      .cls-1 {
        fill: #f8e229;
      }

      .cls-2 {
        fill: #4a430c;
      }

      .cls-3 {
        fill: #e90a1d;
      }

      .cls-4 {
        fill: #4b8ee1;
      }
    </style>
  </defs>
  <g id="Pop">
    <path class="cls-1" d="M632.29,205.09,611.7,219.84c-7.36-3.29-14.45-6.52-16.02-7.98a6.037,6.037,0,0,0-4.57-1.87c-1.49.1-2.99.03-4.54.03-.37-1.21-1.23,1.66,3.46-14.09.06-.22.13-.43.19-.64Z"/>
    <path class="cls-1" d="M631.72,262.85l-4.12,1.68-15.38-6.62c.72-.78,1.46-1.56,2.21-2.35Z"/>
    <path class="cls-1" d="M620.04,145.92l-27.27,26.43a64.294,64.294,0,0,0-7.03-25.17Z"/>
    <polygon class="cls-1" points="612.86 322.67 579.89 329.18 595.88 308.58 612.86 322.67"/>
    <path class="cls-1" d="M586.52,96.4l-12.67,34.08a82.536,82.536,0,0,0-40.01-23.16Z"/>
    <path class="cls-1" d="M576.31,378.9l.02.03-22.75-.72c-1.47-4.26.33-13.29-11.38-15.46a1.965,1.965,0,0,1-.25.13,35.878,35.878,0,0,1-11.05,3.36c8.5-1.24,16.79-5.42,21.28-11.79-.05.08-.1.15-.15.22l9.99.82c9.78,16.04,13.03,21.36,13.98,22.89a.052.052,0,0,0,.02.04s.02.04.08.14c.02.04.05.07.07.11a.414.414,0,0,1,.06.11l.03.05.03.03A.147.147,0,0,0,576.31,378.9Z"/>
    <path class="cls-1" d="M560.1,352.34l1.93,3.15h-.01Z"/>
    <path class="cls-1" d="M562.02,355.49l-9.99-.82c.05-.07.1-.14.15-.22a18.628,18.628,0,0,0,2.25-4.19c.06-.15.11-.29.16-.44a1.957,1.957,0,0,0,.12-.34c.06-.17.12-.34.17-.52.1-.33.18-.66.26-.99a5.594,5.594,0,0,0,.12-.56,12.135,12.135,0,0,0,.21-1.23c.03-.2.05-.41.07-.62s.04-.41.05-.62l3.3,5.41c.41.68.81,1.35,1.21,1.99Z"/>
    <path class="cls-1" d="M558.89,350.35l1.21,1.99C559.7,351.7,559.3,351.03,558.89,350.35Z"/>
    <path class="cls-1" d="M556.17,321.61q.18.06.33.12A3.428,3.428,0,0,1,556.17,321.61Z"/>
    <path class="cls-1" d="M555.47,346.18c.03-.21.05-.41.07-.62C555.52,345.77,555.5,345.98,555.47,346.18Z"/>
    <path class="cls-1" d="M555.14,347.97a5.054,5.054,0,0,0,.12-.56A5.594,5.594,0,0,1,555.14,347.97Z"/>
    <path class="cls-1" d="M554.71,349.48c.06-.17.12-.34.17-.52C554.83,349.14,554.77,349.31,554.71,349.48Z"/>
    <path class="cls-1" d="M554.54,321.11c.19.06.37.11.55.16C554.92,321.22,554.73,321.17,554.54,321.11Z"/>
    <path class="cls-1" d="M554.43,350.26c.06-.14.11-.29.16-.44C554.54,349.97,554.49,350.11,554.43,350.26Z"/>
    <path class="cls-1" d="M553.62,378.35l-.1-.14h.06A.467.467,0,0,0,553.62,378.35Z"/>
    <path class="cls-1" d="M554.2,321.03c-.46-.13-.95-.25-1.48-.38C553.25,320.77,553.75,320.9,554.2,321.03Z"/>
    <path class="cls-1" d="M552.46,332.93c-.15-.23-.3-.46-.45-.68C552.17,332.47,552.31,332.7,552.46,332.93Z"/>
    <path class="cls-1" d="M552.4,320.57c-.21-.05-.42-.1-.64-.15C551.98,320.47,552.19,320.52,552.4,320.57Z"/>
    <path class="cls-1" d="M551.76,320.42c-.32-.07-.66-.15-1-.23C551.1,320.27,551.43,320.34,551.76,320.42Z"/>
    <path class="cls-1" d="M551.46,331.48q-.21-.285-.42-.54A5.564,5.564,0,0,1,551.46,331.48Z"/>
    <path class="cls-1" d="M550.43,330.22c-.15-.16-.3-.33-.45-.48A5.11,5.11,0,0,1,550.43,330.22Z"/>
    <path class="cls-1" d="M549.98,329.74c-.16-.17-.32-.33-.49-.49C549.66,329.41,549.83,329.57,549.98,329.74Z"/>
    <path class="cls-1" d="M550.73,320.18c-.56-.12-1.14-.25-1.74-.38C549.59,319.93,550.17,320.06,550.73,320.18Z"/>
    <path class="cls-1" d="M548.8,328.62c-.13-.12-.26-.23-.4-.34C548.53,328.38,548.67,328.5,548.8,328.62Z"/>
    <path class="cls-1" d="M546.15,319.2c.22.05.44.09.65.14-.21-.05-.43-.09-.65-.13Z"/>
    <path class="cls-1" d="M546.68,327.03c-.16-.11-.32-.21-.49-.31C546.36,326.82,546.52,326.92,546.68,327.03Z"/>
    <path class="cls-1" d="M546.15,319.21a65.92,65.92,0,0,1-1.85,6.5c-21.78-10.17-63.74,15.94-33.27,36.88a21.067,21.067,0,0,0,4.98,2.48c-6.58,4.2-10.39,7.87-12.34,11.13-5.84,9.79,5.24,15.78,8.78,20.72v.01l12.27,33.56-66.61-18.13,1.12,58.06-57.54-28.96-18.57,54.99-44.18-43.43-33.25,53.05L275.8,456.02l-47.98,46.86-13.41-55.86L157.1,481.18l7.41-56.3-2.68,21.4,50.6-19.22a5.444,5.444,0,0,0,3.51-5.21l-.71-29,.39-.12,20.41-8.93c.34,5.52.49,9.51.54,9.63.15.44.29.91.45,1.36l1.8,31.5a5.435,5.435,0,0,0,7.52,4.71l73.5-30.57a5.44,5.44,0,0,0,3.16-6.44l-6.86-25.49c3.46-1.47,5.54-2.37,5.56-2.38,2.48-1.26,4.17-4.65,3.22-7.24-3.64-10.02-7.37-29.14-10.32-45.57l3.51.1a5.448,5.448,0,0,0,5.09-3.14l10.96-23.49c-1.43,7.49-.82,12.54,3.92,12.55,1.12.01.34.58,4.85.98l-.25.16-5.53,24.83a5.438,5.438,0,0,0,4.99,6.61l13.25.77a5.417,5.417,0,0,0,5.05-2.77l36.2-64.44c-2.63,12.48-5.04,23.88-5.27,25.43-.3,2-.1,3.96,1.56,5.42a6.534,6.534,0,0,0,4.44,1.49h2.1l-4.61,26.27a5.44,5.44,0,0,0,5.41,6.38l12.59-.13c-4.99,14.79-10.29,31.19-11.48,40.23a6.664,6.664,0,0,0,2.04,6.16l6.83,6.07-6.51,22.97a5.453,5.453,0,0,0,1.67,5.59l36,31.23a5.437,5.437,0,0,0,9-4.09l.08-25.51a5.148,5.148,0,0,0,3.38-4.89c.02-5.47-.13-10.24-.14-14.99v-.01c.96-1.99,21.21-61.65,21.21-61.65,34.2.73,45.49-16.66,52.7-23.42a5.446,5.446,0,0,0-.22.79,10.535,10.535,0,0,0-.08,3.46c.14,1.22.4,2.73,1.67,3.38C529.97,316.14,538.63,317.67,546.15,319.21Z"/>
    <path class="cls-1" d="M530.64,58.67l-11.95,46.45a72.686,72.686,0,0,0-28.11,4.19,15.851,15.851,0,0,0-4.53,2.19c-10.58,8.48-2.64,22.98-9.37,20.75-11.25-3.71-33.28-3.02-52.56-5.03-2.37-.25-3.62,1.07-4.73,2.78-.19.29-.37.6-.55.9-3.21,5.41-17.01,30.76-17.59,30.76l-.06.11c-.3,1.42-1.19.52-1.83.6-1.62-9.14,10.52-36.22,10.54-36.33,2.29-9.73-12.69-5.99-29.98-5.31-2.4.08-4.89.43-6.99-1.29-.12-.09-.35-.04-.52-.09-.1-.04-20.09-6.62-23.16-6.45-2.39.13-4.96,2.02-5.43,4.29-.42,2.08-12.05,30.85-13.51,36.29a12.2,12.2,0,0,0,.04,5.31c.57,3,1.02,5.93-.61,8.73-16.46,28.3-16.95,27.61-29.46,50.28H298c-3.03-13.4-10.97-42.7-11.01-45.51-.15-8.69.04-17.39-.13-26.08-.17-8.63.12-17.27-.45-25.92-.69-10.5-.17-21.1-.24-31.64a10.35,10.35,0,0,0-.76-3.4c-.45-1.19-3.3-2.78-4.35-2.48a19.83,19.83,0,0,0-3.23,1.26c-18.81,9.44-34.04,18.55-40.38,20.2-3.84,1-57.2,19.25-65.45,20.12l-6.01-54.1,58.58,25.59L237.7,38.46l49.32,35.86,29.41-53.97L349.3,65.56l44.91-49.74,15.98,52.03L467.02,29.6V84.72Z"/>
    <path class="cls-1" d="M517.15,365.19a30.4,30.4,0,0,0,12.11,1.24,30.843,30.843,0,0,1-13.25-1.36c.09-.05.18-.11.27-.17C516.57,365,516.86,365.1,517.15,365.19Z"/>
    <path class="cls-1" d="M507.1,241.95c1.37-3.9,10.17-28.5,18.38-22.28a43.919,43.919,0,0,1-17.87,21.96h-.01c-.16.11-.32.22-.48.31A.031.031,0,0,0,507.1,241.95Z"/>
    <path class="cls-1" d="M245.72,223.17c12.12,2.71,14.5,15.79,11.63,28.63l-2.85-.61a7.546,7.546,0,0,0,.14-2.6,3.235,3.235,0,0,0-.58-1.93,1.146,1.146,0,0,0-1.57-.18,4.263,4.263,0,0,0-.33.31l-2.09-.1a2.2,2.2,0,0,0,.3-.51c.31-.74-.3-1.84-1.05-1.57-.35.13-.54.49-.77.79a2.71,2.71,0,0,1-2.94.85c-1.22-.42-2.03-1.71-3.29-2-1.05-.22-2.1.32-3.14.56a11.205,11.205,0,0,1-3.22.13c-3.06-.2-6.11-.54-9.15-.89-1.11-.13-2.22-.25-3.33-.38-.84-.1-1.69-.19-2.53-.27l.23-2.14c2.34.29,2.42-2.55,12.2-6.19a2.583,2.583,0,0,0,1.65-2.15,2.393,2.393,0,0,0-1.19-2.18,1.505,1.505,0,0,0-.22-.11,4.359,4.359,0,0,0-1.4-.21h-.01c-.24-.01-.49-.04-.73-.07-2.7-.33-.14-1.64-3.57-1.72a3.512,3.512,0,0,0-1.78.35l-.27-.41C232.41,224.3,239.55,221.8,245.72,223.17Zm4.02,16.26c4.02-6.13.27-3.71.17-10.32a1.318,1.318,0,0,0-.14-.69c-1.84-2.72-11.89,4.99-4.59,10.98a4.929,4.929,0,0,0,3.46.64,1.526,1.526,0,0,0,.73-.19A1.161,1.161,0,0,0,249.74,239.43Z"/>
    <path class="cls-1" d="M254.5,251.19l2.85.61c-3.31,14.85-13.65,29.39-24.07,27.22a9.456,9.456,0,0,1-6.01-4.04,11.441,11.441,0,0,1-1.44-2.38c-1.15-3.17-1.69-6.28-2.47-7.12-1.35-1.42-2.24-2.42-4.37-.25a5.711,5.711,0,0,0-1.91,4.69c.18,3.85,3.65,8.93-.92,14.68-.69.86-4.09,1.31-5.25.8-8-3.53-10.53-11.93-9.52-20.54a55.566,55.566,0,0,1,2.18-9.58,59,59,0,0,1,2.98-7.08c.19-.4.78-.62,1.19-.93l.16.02c19.83,2.24,20.18.8,28.96,2.41a2.413,2.413,0,0,1,.76.24,5.228,5.228,0,0,1,.76.73,4.009,4.009,0,0,0,2.66.75c2.17.11,4.63.1,6.15-1.46.6-.61.98-1.4,1.58-2.02.41-.44.94-.79,1.3-1.25l2.09.1a6.046,6.046,0,0,0-.93,1.21,2.2,2.2,0,0,0-.1.99,7.951,7.951,0,0,1-.35,2.61,2.148,2.148,0,0,1-.31.67,2.391,2.391,0,0,1-.22.23,3.553,3.553,0,0,0-.7.64,2.466,2.466,0,0,0-.02,1.96c.16.66.19,1.49-.38,1.87a5.6,5.6,0,0,1-.95.33,1.583,1.583,0,0,0-.83,1.96,1.866,1.866,0,0,0,1.86,1.18,3.85,3.85,0,0,0,2.58-1.84,4.959,4.959,0,0,0,1.36-3.65c-.12-.62-.44-1.29-.13-1.84a3.032,3.032,0,0,1,.71-.67A2.6,2.6,0,0,0,254.5,251.19Zm-21.73,13.3c3.09-2.32,9.31-7.49,6.36-9.97a2.176,2.176,0,0,0-3.04.04c-3.33,2.44-5.58,6.25-6.26,7.05a1.72,1.72,0,0,0,.14,2.66A2.14,2.14,0,0,0,232.77,264.49ZM216.05,257a1.1,1.1,0,0,0,.63-1.13,1.343,1.343,0,0,0-.62-.67c-1.98-1.26-6.16-2.58-6.94.4a11.244,11.244,0,0,1-1.08,3.48c-.75,1.24-2.59,3.29-1.93,4.88.38.92,1.54,1.19,2.53,1.33.4.05.81.09,1.22.15a2.623,2.623,0,0,0,3.65-2.17,9.224,9.224,0,0,0,.43-1.87c.06-.67-.01-1.33.05-2a2.525,2.525,0,0,1,.82-1.77A11.1,11.1,0,0,1,216.05,257Z"/>
    <path class="cls-1" d="M236.03,383.8l-20.41,8.93c2.32-1.86,2.52-4.39,2.28-7.08-.15-1.62-1.87-25.44-.3-26.45,2.77-1.78,7.58-2.77,13.58-6.85a11.244,11.244,0,0,1,1.05,1.9C234.34,361.18,235.46,374.61,236.03,383.8Z"/>
    <path class="cls-1" d="M226.04,231.32a2.458,2.458,0,0,1,.08,2.35c-.75,1.43-3.07,2.39-5.38,4.52a3.681,3.681,0,0,0-.99,1.27,1.477,1.477,0,0,0,.28,1.49,4.989,4.989,0,0,0,1.15.31l-.23,2.14c-2.01-.22-4.03-.41-6.04-.58-1.29-.12-2.58-.22-3.88-.32.31-.41.64-.83.97-1.26l.01-.01a60.715,60.715,0,0,1,13.85-12.66l.27.41a1.084,1.084,0,0,0-.54.71A2.662,2.662,0,0,0,226.04,231.32Z"/>
    <path class="cls-1" d="M211.03,242.5a41.955,41.955,0,0,0-3.13,4.79l-.16-.02c-3.24-.37-23.36-3.03-31.58-4.79-1.24-.79.6-2.04.7-2.05C196.66,240.23,207.55,242.28,211.03,242.5Z"/>
    <path class="cls-1" d="M106.68,117.08l61.07,9.36a3.757,3.757,0,0,0-.95,1.42,27.124,27.124,0,0,0-.73,3.76c-1.31,15.12,1.77,19.06-10.13,115.8-.17,1.43-.45,2.66-1.54,3.41-12.99-8.67-6.99-6.1-24-6.21-1.92-.01-2.48-.51-1.66-2.56,5.88-14.72,5.82-10.71,8.47-32.7,2.81-23.28-3.07-39.65-13.37-49.38Z"/>
    <polygon class="cls-1" points="164.51 424.88 137.78 433.55 137.78 433.54 164.51 424.88"/>
    <path class="cls-1" d="M139.24,362.16c.01-.13.01-.25.01-.36C139.25,361.91,139.25,362.03,139.24,362.16Z"/>
    <path class="cls-1" d="M139.18,363.23c.01-.15.02-.29.03-.43C139.2,362.94,139.19,363.08,139.18,363.23Z"/>
    <path class="cls-1" d="M139.14,418.74l-1.36,14.8-36.12,11.68c5.6-13.42,8.53-20.46,11.99-28.74l.08-.06s17.71-13.36,22.96-28.79q.135-1.2.27-2.43c.34-3.04.68-6.05.98-8.85-1.65,15.5-4.26,37.1-4.27,37.17-.13,3.06,1.45,4.8,4.51,5.19A4.241,4.241,0,0,0,139.14,418.74Z"/>
    <path class="cls-1" d="M138.57,370.24c.03-.32.06-.63.09-.94C138.63,369.6,138.6,369.92,138.57,370.24Z"/>
    <path class="cls-1" d="M137.94,376.35c.23-2.19.44-4.25.63-6.11C138.39,372.1,138.17,374.16,137.94,376.35Z"/>
    <path class="cls-1" d="M118.53,404.81l-.6,1.42C118.12,405.77,118.32,405.29,118.53,404.81Z"/>
    <path class="cls-1" d="M115.53,411.98l-.55,1.32C115.16,412.87,115.34,412.42,115.53,411.98Z"/>
    <path class="cls-1" d="M114.89,413.52l-.45,1.07C114.58,414.24,114.73,413.88,114.89,413.52Z"/>
    <path class="cls-1" d="M61.45,403.35l-8.58.69,6.81-7.7C60.33,399,60.93,401.36,61.45,403.35Z"/>
    <path class="cls-1" d="M49.21,350.86l-21.49-2.88,17.96-13.01Q47.48,343.13,49.21,350.86Z"/>
    <path class="cls-1" d="M36.79,294.62l-15.26-4.88,12.82-6.18C35.16,287.2,35.97,290.91,36.79,294.62Z"/>
  </g>
  <g id="Drop">
    <path class="cls-2" d="M627.6,264.53l-33.76,13.7c5.11-5.89,11.18-12.63,18.38-20.32Z"/>
    <path class="cls-2" d="M595.88,308.58l-15.99,20.6h-.01l-26.59,5.25c-.26-.52-.54-1.02-.83-1.5-.15-.23-.29-.46-.45-.68-.18-.27-.36-.52-.55-.77a5.564,5.564,0,0,0-.42-.54c-.2-.25-.4-.49-.61-.72a5.11,5.11,0,0,0-.45-.48c-.15-.17-.32-.33-.49-.49q-.33-.315-.69-.63c-.13-.12-.27-.24-.4-.34a17.535,17.535,0,0,0-1.72-1.25c-.16-.11-.32-.21-.49-.31a19.009,19.009,0,0,0-1.89-1.01,65.92,65.92,0,0,0,1.85-6.5c.22.04.44.08.65.13.75.15,1.48.31,2.19.46.6.13,1.18.26,1.74.38a.037.037,0,0,0,.03.01c.34.08.68.16,1,.23.22.05.43.1.64.15.11.03.22.06.32.08.53.13,1.02.25,1.48.38.12.03.23.06.34.08.19.06.38.11.55.16.4.12.77.24,1.08.34a3.428,3.428,0,0,0,.33.12,6.48,6.48,0,0,1,.68.32,4.284,4.284,0,0,0,2.62.23c8.44-1.56.58-1.43,20.08-26.98Z"/>
    <path class="cls-2" d="M568.72,238.82a4.774,4.774,0,0,1,1.36-.72c-.5.98-29.94,56.73-40.84,67.4a6.294,6.294,0,0,0-1.6,2.52c-7.21,6.76-18.5,24.15-52.7,23.42,0,0-20.25,59.66-21.21,61.65-.05-18.43,1.92-36.5,23.29-92.71a3.223,3.223,0,0,1,2.21-1.75c4.36-.41,8.73-.55,13.1-.84C513.02,296.43,546.6,260.7,568.72,238.82Z"/>
    <path class="cls-2" d="M553.58,378.21h-.06l-37.83-1.18-10.64-.35-1.38-.48c1.95-3.26,5.76-6.93,12.34-11.13a30.843,30.843,0,0,0,13.25,1.36c.54-.05,1.09-.11,1.64-.19a35.878,35.878,0,0,0,11.05-3.36,1.965,1.965,0,0,0,.25-.13C553.91,364.92,552.11,373.95,553.58,378.21Z"/>
    <path class="cls-2" d="M525.88,187.98c3.45,8.46,3.82,20.48-.4,31.69-8.21-6.22-17.01,18.38-18.38,22.28-.49.25-9.91,4.76-10.09.04-.18-6.02,14.85-37.99,18.3-46.29C515.55,195.11,523.27,181.65,525.88,187.98Z"/>
    <path class="cls-2" d="M505.05,376.68l7.4,20.24c-3.54-4.94-14.62-10.93-8.78-20.72Z"/>
    <path class="cls-2" d="M450.49,412.98l-.08,25.51a5.437,5.437,0,0,1-9,4.09l-36-31.23a5.453,5.453,0,0,1-1.67-5.59l6.51-22.97c28.27,24.99,16.98,13.66,32.06,28.05a5.88,5.88,0,0,0,1.56,1.33,26.24,26.24,0,0,0,3.52,1A5.315,5.315,0,0,0,450.49,412.98Z"/>
    <path class="cls-2" d="M422.12,298.99a9.287,9.287,0,0,1-.14,3.37c-1.3,5.12-4.99,15.72-8.92,27.36-.07.2-.14.4-.2.61l-12.59.13a5.44,5.44,0,0,1-5.41-6.38l4.61-26.27h15.51c1.8,0,3.6.01,5.4-.01C421.26,297.79,422.03,298.12,422.12,298.99Z"/>
    <path class="cls-2" d="M402.51,228.73c1.75-2.15,1.77-.03,1.3,2.47-.67,3.59-3.95,19.09-6.99,33.41-.06.3-.12.57-.18.85v.01l-36.2,64.44a5.417,5.417,0,0,1-5.05,2.77l-13.25-.77a5.438,5.438,0,0,1-4.99-6.61l5.53-24.83.25-.16h.01c2.64.24,7.1.41,14.83.37,2.75-.01,5.76-2.74,6.2-5.44.01-.03,3.42-5.97,8.23-14.32,5.55-9.64,12.94-22.45,19.04-32.98S402.14,229.19,402.51,228.73Z"/>
    <path class="cls-2" d="M349.68,230.25c.17.46.52.93.48,1.36-1.27,12.98-12.48,38.27-15.78,54v.01c-.08.38-.15.78-.22,1.15v.01L323.2,310.27a5.448,5.448,0,0,1-5.09,3.14l-3.51-.1q-.165-.96-.33-1.89c-2.57-14.45-4.48-26.4-5.13-27.57-1.63-2.93.05-4.13,2.5-4.05,2.34.05,4.68.02,7.01.02a7.857,7.857,0,0,0,7.25-4.84c3.7-8.12,15.01-28.24,22.92-43.86C349,230.78,349.39,230.55,349.68,230.25Z"/>
    <path class="cls-2" d="M323,393.99a5.44,5.44,0,0,1-3.16,6.44L246.34,431a5.435,5.435,0,0,1-7.52-4.71l-1.8-31.5a5.173,5.173,0,0,0,1.11,2.06c2.37,2.4,5.53,2.1,8.4,1.44.08-.04,52.24-22.35,69.61-29.79Z"/>
    <path class="cls-2" d="M215.94,421.85a5.444,5.444,0,0,1-3.51,5.21l-50.6,19.22,2.68-21.4-26.73,8.66,1.36-14.8c12.2-.22,70.22-24.51,73.45-25.18.89-.2,1.76-.47,2.64-.71Z"/>
    <path class="cls-2" d="M139.26,361.37c0,.12,0,.26-.01.43,0,.11,0,.23-.01.36,0,.19-.01.41-.03.64-.01.14-.02.28-.03.43-.09,1.47-.28,3.56-.52,6.07-.03.31-.06.62-.09.94-.19,1.86-.4,3.92-.63,6.11-.3,2.8-.64,5.81-.98,8.85q-.135,1.23-.27,2.43c-5.25,15.43-22.96,28.79-22.96,28.79l-.08.06.79-1.89.45-1.07.09-.22.55-1.32,2.4-5.75.6-1.42,2.6-6.24-31.99,2.55c10.57-6.18,26.26-16.7,49.23-40.79C138.83,360.85,139.26,361.1,139.26,361.37Z"/>
    <path class="cls-2" d="M118.56,292.44c2.85,1.91-8.08,18.49-12.99,24.49a4.3,4.3,0,0,1-1.02.98c-2.65,1.57-5.68-8.91-5.44-11.97a12.185,12.185,0,0,0-.02-1.6,3.341,3.341,0,0,1,2-3.49C118.16,291.57,116.79,291.27,118.56,292.44Z"/>
    <path class="cls-2" d="M94.36,220.88c.2,8.71-5.14,19.14-6.19,19.82a4.536,4.536,0,0,1-1.35.26c-2.09-17.09-1.05-10.04-1.53-14.9C84.62,219.1,94.26,216.28,94.36,220.88Z"/>
  </g>
  <g id="Fill">
    <path class="cls-3" d="M625.48,232.48c1.5.83,1.58,1.76.4,3.09-2.44,2.73-6.1,6.8-10.46,11.73-1.75,1.98-3.63,4.1-5.58,6.32-7.39,8.41-15.95,18.29-23.87,27.81-3.67,4.43-7.21,8.77-10.44,12.88-6.72,8.53-12.07,15.97-14.44,20.66-.78,1.55-1.99,2.06-3.48,1.26-5.18-2.74-21.9-4.57-24.44-4.88a2.555,2.555,0,0,1,.89-3.04c9.36-8.89,24.71-38.14,54.04-89.78,1.5-2.66,2.69-2.86,5.32-1.38,2.24,1.25,4.59,2.29,6.9,3.41C611.81,226.06,622.83,231.04,625.48,232.48Z"/>
    <path class="cls-3" d="M580.32,147.38a55.553,55.553,0,0,1,7.24,30.02,69.643,69.643,0,0,1-.86,8.84c-.2,1.26-.43,2.54-.71,3.83-.27,1.31-.59,2.65-.94,4.01-.28,1.07-.59,2.15-.92,3.26-.45,1.5-.83,3.03-1.43,4.49a45.759,45.759,0,0,0-2.24,7.37,13.6,13.6,0,0,1-1.61,3.49c-1.92,3.44-3.96,6.81-5.84,10.27a50.983,50.983,0,0,1-10.28,13.69c-2.53,2.28-4.87,4.77-7.21,7.26-12.67,13.44-47.96,50.05-67.78,48.25-2.21-.21-11.13-.18-12.99.81a6.114,6.114,0,0,0-2.05,2.69c-.05.09-.5.83-3.65,9.19-23.14,61.05-19.67,78.65-21.66,102.05-.87-.45-1.74-.59-1.97-1.05-.96-1.95-29.29-24.63-37.88-32.43-1.44-1.32-1.49-2.15-.85-3.93,1.79-4.96,21.1-66.13,21.43-68.78.18-1.51,1.09-2.92,1.67-4.38.02-.06.08-.1.11-.16,1.35-3.23.72-4.15-2.75-4.15q-14.745,0-29.5-.03c-1.55,0-2.21-.71-1.89-2.02,2.51-10.29,18.49-87.43,18.52-87.55,3.25-13.59-12.82,16.94-17.54,25-.99,1.66-25.59,44.46-34.57,60.15-1.93,3.35-3.14,5.48-3.24,5.66-.94,1.75-4.6,2.17-8.45,2.08a77.635,77.635,0,0,1-10.55-1.14c-3.95-.75,28.87-102.57,31.84-114.4a3.192,3.192,0,0,1,.54-1.43c1.2-1.24,1.16-2.65.9-4.15-1.29-.53-1.62.37-2,1.17-1.74,3.71-3.42,7.46-5.23,11.12-2.37,4.76-4.81,9.49-7.28,14.21-.79,1.5-1.89,2.85-2.68,4.36-2.48,4.75-4.85,9.55-7.33,14.3-1.03,1.96-2.3,3.77-3.35,5.73-26.1,48.53-23.26,49.53-28.15,49.13-2.14-.16-4.31-.04-6.47-.18-2.25-.16-4.48-.55-6.73-.68-2.29-.12-2.77.88-2.37,3.12,5.39,30.25,7.1,38.84,17.37,81.38a6.7,6.7,0,0,1,.18,2.31c-.06.51-38.5,16.69-59.89,25.66l-.01.01-.03.01c-8.21,3.43-13.89,5.81-13.92,5.82a1.509,1.509,0,0,1-2.3-.83,4.118,4.118,0,0,1-.25-1.02c-8.13-63.02.89-44.88-29.17-34.91-4.36,1.45-4.68,1.59-1.42,32.02-.76.54-1.53,1.15-2.36,1.66-.91.55-50.41,18.54-68.13,25.33-.66.25-1.35.41-2.18.66-.17-1.87-.61-3.39.36-4.83.15-.21.1-.57.12-.87.53-7.17,6.08-58.34,7.44-64.54-6.16-3.46-6.87,18.64-70.7,57.79l-9.71.79C58.29,364.54,50.5,329.24,43.87,299.1c-.18-.79-.35-1.58-.52-2.38-10.01-45.48-17.3-78.86-21.07-92.79a22.812,22.812,0,0,0-1.47-4.48,1.725,1.725,0,0,1,.71-2.2c2.62-1.96,5.16-4.08,7.93-5.83,15.72-9.99,46.23-39.37,70.37-37.71a35.53,35.53,0,0,1,14.44,3.87,31.089,31.089,0,0,1,13.03,13.33c11.29,21.19,4.73,56.15-3.69,71.58a44.045,44.045,0,0,1-4.23,6.11c-.63.78-1.07,1.57-.61,2.36.25.44,1.21.64,1.84.62,20.25-.91,18.57-1.31,21.71-1.38a5.664,5.664,0,0,1,2.59.87c11.04,5.88,6.81,9.53,12.71,13.53a3.807,3.807,0,0,0,1.81-3.27c.34-3.09.48-6.18.91-9.25,12.53-88.96,10.45-113.79,12.19-120.43a4.9,4.9,0,0,1,2.53-2.96c34.46-13.52,38.04-6.26,101.7-39.2.9-.45,1.73-1.05,2.63-1.49a14.344,14.344,0,0,1,1.99-.63c.08.98.19,1.67.19,2.36.04,4.62.05,9.24.09,13.86q.225,28.83.46,57.7c.03,3.25-.08,6.49.1,9.71a29.724,29.724,0,0,0,1.05,5.04c6.52,27.17,6.72,25.75,12.56,51.38.25,1.07.65,2.12,1.11,3.6a20.7,20.7,0,0,0,2.52-2.86c2.61-4.57,5.05-9.24,7.68-13.8,10.07-17.36,26.28-44.58,27.3-46.01,1.61-2.25,1.25-4.47.9-6.81-.5-3.36-1.15-6.67.32-10,14.35-32.74,9.79-32.95,15.67-33.22,8.89-.38,21.11,8.53,31.77,6.21.1-.03,22.74-3,20.05,2.89-.05.11-7.63,20.43-9.5,32.85-5.34,35.43-5.8,33.45-3.94,34.45.21.13.97-.38,1.2-.78.07-.1,16.83-30.72,16.89-30.84,5.64-10.81,12.85-24.28,14-26.47.21-.41.32-.89.53-1.31,1.54-3.1,3.53-3.9,7.36-2.9,6.2,1.62,41.42,3.57,41.52,3.62,2.19.74,2.33,1.06,1.71,3-.7,2.18-1.22,4.4-1.84,6.61-8.07,28.89-15.81,64.54-29.53,114.71-.22.82-.37,1.67-.54,2.48,1.12.41,1.63.37,2.06-.65,12.82-30.37,26.1-71.48,36.53-104.46a29.908,29.908,0,0,0,.74-4.21c7.63-45.64,5.29-33.53,14.28-39.52,11.94-7.96,53.91-2.29,77.18,22.04,1.08,1.14,2.12,2.31,3.11,3.54.97,1.16,1.89,2.38,2.76,3.63C578.6,144.54,579.49,145.94,580.32,147.38Zm-69.33,98.53c12.84-7.07,27.04-29.72,22.03-52.71a57.122,57.122,0,0,1-1.44-6.16c-.38-3.86-9.19-11.3-11.26-6.23-.74,1.77-6.66,7.01-8.86,10.34-4.5,6.78-19.15,45.09-19.34,45.9a49.1,49.1,0,0,1-3.68,9.62c-1.53,3.25,1.06,2.74,8,3.53C500.18,250.65,507.44,247.85,510.99,245.91ZM249.83,279.84c16.92-15.88,25.26-50.09,3.89-62.9-15.1-9.03-31.25,2.88-45.22,12.98a9.394,9.394,0,0,1-5.89,1.89c-7.67-.15-15.35-.09-23.02-.06-10.16.06-12.98,11.74-9.25,16.17,5.25,6.21,14.65,6.24,17.53,7.41a7.171,7.171,0,0,1,4.8,6.52c.31,4.34-2.03,21.03,12.71,30.15,5.29,3.28,12.02,2.66,18.02-3.87a6.648,6.648,0,0,1,4.75-1.86,77.286,77.286,0,0,1,7.91-.03,14.656,14.656,0,0,0,5.75-1.26A23.2,23.2,0,0,0,249.83,279.84ZM109.54,320.59c7.05-6.76,17.92-25.06,14.21-32.93-.92-1.95-2.24-2.83-4.17-1.94a4.644,4.644,0,0,1-1.96.6c-3.47-.04-19.97,11.09-22.17,12.58a3.349,3.349,0,0,0-1.65,3.13c.33,10.37,3.91,25.04,3.95,25.14.34.81.71,1.93,1.38,2.25a2.579,2.579,0,0,0,3.14-.98C104.59,325.73,106.97,323.06,109.54,320.59ZM89.46,251c12.18-19.71,10.36-24.78,10.44-28.97.06-3.6-.66-6.61-4.17-8.69a7.061,7.061,0,0,0-5.74-.9c-10.48,2.98-10.64,12.23-10.88,13.6-.02.09.07.21.09.32,1.36,7.48,3.94,29.83,3.96,29.94a1.93,1.93,0,0,0,.96,1.15c.27.13.94-.2,1.18-.52C86.73,254.99,88.19,253.06,89.46,251Z"/>
    <path class="cls-3" d="M550.31,338.92c.14,1.4.05,7.85-.63,9.71-3.76,10.45-24.15,15.25-34.95,9.71C480.85,340.92,547.76,312.99,550.31,338.92Z"/>
  </g>
  <g id="Outline">
    <path class="cls-4" d="M612.22,257.91c-7.2,7.69-13.27,14.43-18.38,20.32l33.76-13.7,4.12-1.68-17.29-7.29C613.68,256.35,612.94,257.13,612.22,257.91ZM652.64,263l-66.57,27.04,44.84,37.21L562.43,340.8l28.43,46.6-74.23-2.35,20.92,57.23-71.24-19.4,1.18,60.65-61.16-30.78L386.61,511.1l-46.18-45.4-34.91,55.7-31.38-52.56-50.81,49.61-14.16-59L147.01,496.5l7.91-60.1L87.58,458.18l21.12-50.59-34.44,2.76c-.12.11-.24.23-.36.34a7.042,7.042,0,0,1-9.56.46L33.75,413.6l23.64-26.76c-1.84-7.89-3.99-17.3-6.32-27.66L6.82,353.24,43.8,326.45c-1.66-7.52-3.35-15.17-5.02-22.78L0,291.25l32.59-15.72c-7.75-35.13-14.21-63.98-15.49-66.49a.531.531,0,0,1-.08-.17c-.23-2.81-.92-5.65-.65-8.45,1.83-19.06,60.81-46.83,74.5-50.25.66-.19,1.33-.39,1.99-.61a1.22,1.22,0,0,1,.17-.07,24.232,24.232,0,0,1,3.17-.28,43.164,43.164,0,0,1,16.01,3.25L94.05,107.04l69.15,10.62-6.69-60.28,62.41,27.27,13.68-59.8,51.76,37.64,31.1-57.07,34.51,47.46L397.72,0l16.95,55.18,60.35-40.62V72.79l67.33-27.56-14.17,55.11,70.87-14.73-19.28,51.93c.43.59.86,1.2,1.28,1.81l59.53-2.18-48.05,46.55c-.15,1.25-.32,2.5-.54,3.76l59.31,13.83-31.18,22.34c5.4,2.48,9.66,4.59,10.1,5.5a10.222,10.222,0,0,1,.87,6.01,31.49,31.49,0,0,1-1.22,4.36l-.08.07c-.08.09-.16.2-.24.29q-4.86,4.935-9.22,9.48ZM611.7,219.84l20.59-14.75-42.07-9.8c-.06.21-.13.42-.19.64-4.69,15.75-3.83,12.88-3.46,14.09,1.55,0,3.05.07,4.54-.03a6.037,6.037,0,0,1,4.57,1.87C597.25,213.32,604.34,216.55,611.7,219.84Zm14.18,15.73c1.18-1.33,1.1-2.26-.4-3.09-2.65-1.44-13.67-6.42-25.16-11.92-2.31-1.12-4.66-2.16-6.9-3.41-2.63-1.48-3.82-1.28-5.32,1.38-29.33,51.64-44.68,80.89-54.04,89.78a2.555,2.555,0,0,0-.89,3.04c2.54.31,19.26,2.14,24.44,4.88,1.49.8,2.7.29,3.48-1.26,2.37-4.69,7.72-12.13,14.44-20.66,3.23-4.11,6.77-8.45,10.44-12.88,7.92-9.52,16.48-19.4,23.87-27.81,1.95-2.22,3.83-4.34,5.58-6.32C619.78,242.37,623.44,238.3,625.88,235.57Zm-33.11-63.22,27.27-26.43-34.3,1.26A64.294,64.294,0,0,1,592.77,172.35ZM579.89,329.18l32.97-6.51-16.98-14.09-16-13.28c-19.5,25.55-11.64,25.42-20.08,26.98a4.284,4.284,0,0,1-2.62-.23,6.48,6.48,0,0,0-.68-.32q-.15-.06-.33-.12c-.31-.1-.68-.22-1.08-.34-.18-.05-.36-.1-.55-.16-.11-.02-.22-.05-.34-.08-.45-.13-.95-.26-1.48-.38-.1-.02-.21-.05-.32-.08-.21-.05-.42-.1-.64-.15-.33-.08-.66-.15-1-.23a.037.037,0,0,1-.03-.01c-.56-.12-1.14-.25-1.74-.38-.71-.15-1.44-.31-2.19-.46-.21-.05-.43-.09-.65-.14v.01c-7.52-1.54-16.18-3.07-17.14-3.56-1.27-.65-1.53-2.16-1.67-3.38a10.535,10.535,0,0,1,.08-3.46,5.446,5.446,0,0,1,.22-.79,6.294,6.294,0,0,1,1.6-2.52c10.9-10.67,40.34-66.42,40.84-67.4a4.774,4.774,0,0,0-1.36.72c-22.12,21.88-55.7,57.61-76.39,58.97-4.37.29-8.74.43-13.1.84a3.223,3.223,0,0,0-2.21,1.75c-21.37,56.21-23.34,74.28-23.29,92.71v.01c.01,4.75.16,9.52.14,14.99a5.148,5.148,0,0,1-3.38,4.89,5.315,5.315,0,0,1-3.1.19,26.24,26.24,0,0,1-3.52-1,5.88,5.88,0,0,1-1.56-1.33c-15.08-14.39-3.79-3.06-32.06-28.05l-6.83-6.07a6.664,6.664,0,0,1-2.04-6.16c1.19-9.04,6.49-25.44,11.48-40.23.06-.21.13-.41.2-.61,3.93-11.64,7.62-22.24,8.92-27.36a9.287,9.287,0,0,0,.14-3.37c-.09-.87-.86-1.2-1.74-1.19-1.8.02-3.6.01-5.4.01H397.37a6.534,6.534,0,0,1-4.44-1.49c-1.66-1.46-1.86-3.42-1.56-5.42.23-1.55,2.64-12.95,5.27-25.43v-.01c.06-.28.12-.55.18-.85,3.04-14.32,6.32-29.82,6.99-33.41.47-2.5.45-4.62-1.3-2.47-.37.46-5.17,8.69-11.27,19.21s-13.49,23.34-19.04,32.98c-4.81,8.35-8.22,14.29-8.23,14.32-.44,2.7-3.45,5.43-6.2,5.44-7.73.04-12.19-.13-14.83-.37h-.01c-4.51-.4-3.73-.97-4.85-.98-4.74-.01-5.35-5.06-3.92-12.55v-.01c.07-.37.14-.77.22-1.15v-.01c3.3-15.73,14.51-41.02,15.78-54,.04-.43-.31-.9-.48-1.36-.29.3-.68.53-.86.87-7.91,15.62-19.22,35.74-22.92,43.86a7.857,7.857,0,0,1-7.25,4.84c-2.33,0-4.67.03-7.01-.02-2.45-.08-4.13,1.12-2.5,4.05.65,1.17,2.56,13.12,5.13,27.57q.165.93.33,1.89c2.95,16.43,6.68,35.55,10.32,45.57.95,2.59-.74,5.98-3.22,7.24-.02.01-2.1.91-5.56,2.38-17.37,7.44-69.53,29.75-69.61,29.79-2.87.66-6.03.96-8.4-1.44a5.173,5.173,0,0,1-1.11-2.06c-.16-.45-.3-.92-.45-1.36-.05-.12-.2-4.11-.54-9.63-.57-9.19-1.69-22.62-3.8-29.55a11.244,11.244,0,0,0-1.05-1.9c-6,4.08-10.81,5.07-13.58,6.85-1.57,1.01.15,24.83.3,26.45.24,2.69.04,5.22-2.28,7.08l-.39.12c-.88.24-1.75.51-2.64.71-3.23.67-61.25,24.96-73.45,25.18a4.241,4.241,0,0,1-.96-.03c-3.06-.39-4.64-2.13-4.51-5.19.01-.07,2.62-21.67,4.27-37.17.23-2.19.45-4.25.63-6.11.03-.32.06-.64.09-.94.24-2.51.43-4.6.52-6.07.01-.15.02-.29.03-.43.02-.23.03-.45.03-.64.01-.13.01-.25.01-.36.01-.17.01-.31.01-.43,0-.27-.43-.52-.89-1.04-22.97,24.09-38.66,34.61-49.23,40.79l31.99-2.55-2.6,6.24c-.21.48-.41.96-.6,1.42l-2.4,5.75c-.19.44-.37.89-.55,1.32l-.09.22c-.16.36-.31.72-.45,1.07l-.79,1.89c-3.46,8.28-6.39,15.32-11.99,28.74l36.12-11.68v.01l26.73-8.67-7.41,56.3,57.31-34.16,13.41,55.86,47.98-46.86,29.89,50.05,33.25-53.05,44.18,43.43,18.57-54.99,57.54,28.96-1.12-58.06,66.61,18.13-12.27-33.56v-.01l-7.4-20.24,10.64.35,37.83,1.18.1.14a.467.467,0,0,1-.04-.14l22.75.72-.02-.03a.147.147,0,0,1-.02-.04l-.03-.03-.03-.05a.414.414,0,0,0-.06-.11c-.02-.04-.05-.07-.07-.11-.06-.1-.08-.14-.08-.14a.052.052,0,0,1-.02-.04c-.95-1.53-4.2-6.85-13.98-22.89h.01l-1.93-3.15-1.21-1.99-3.3-5.41c-.01.21-.03.42-.05.62s-.04.41-.07.62a12.135,12.135,0,0,1-.21,1.23,5.054,5.054,0,0,1-.12.56c-.08.33-.16.66-.26.99-.05.18-.11.35-.17.52a1.957,1.957,0,0,1-.12.34c-.05.15-.1.3-.16.44a18.628,18.628,0,0,1-2.25,4.19c-4.49,6.37-12.78,10.55-21.28,11.79-.55.08-1.1.14-1.64.19a30.4,30.4,0,0,1-12.11-1.24c-.29-.09-.58-.19-.87-.29-.09.06-.18.12-.27.17a21.067,21.067,0,0,1-4.98-2.48c-30.47-20.94,11.49-47.05,33.27-36.88a19.009,19.009,0,0,1,1.89,1.01c.17.1.33.2.49.31a17.535,17.535,0,0,1,1.72,1.25c.14.11.27.22.4.34q.36.315.69.63c.17.16.33.32.49.49.15.15.3.32.45.48.21.23.41.47.61.72q.21.255.42.54c.19.25.37.5.55.77.15.22.3.45.45.68.29.48.57.98.83,1.5l26.59-5.25Zm7.67-151.78a55.553,55.553,0,0,0-7.24-30.02c-.83-1.44-1.72-2.84-2.66-4.17-.87-1.25-1.79-2.47-2.76-3.63-.99-1.23-2.03-2.4-3.11-3.54-23.27-24.33-65.24-30-77.18-22.04-8.99,5.99-6.65-6.12-14.28,39.52a29.908,29.908,0,0,1-.74,4.21c-10.43,32.98-23.71,74.09-36.53,104.46-.43,1.02-.94,1.06-2.06.65.17-.81.32-1.66.54-2.48,13.72-50.17,21.46-85.82,29.53-114.71.62-2.21,1.14-4.43,1.84-6.61.62-1.94.48-2.26-1.71-3-.1-.05-35.32-2-41.52-3.62-3.83-1-5.82-.2-7.36,2.9-.21.42-.32.9-.53,1.31-1.15,2.19-8.36,15.66-14,26.47-.06.12-16.82,30.74-16.89,30.84-.23.4-.99.91-1.2.78-1.86-1-1.4.98,3.94-34.45,1.87-12.42,9.45-32.74,9.5-32.85,2.69-5.89-19.95-2.92-20.05-2.89-10.66,2.32-22.88-6.59-31.77-6.21-5.88.27-1.32.48-15.67,33.22-1.47,3.33-.82,6.64-.32,10,.35,2.34.71,4.56-.9,6.81-1.02,1.43-17.23,28.65-27.3,46.01-2.63,4.56-5.07,9.23-7.68,13.8a20.7,20.7,0,0,1-2.52,2.86c-.46-1.48-.86-2.53-1.11-3.6-5.84-25.63-6.04-24.21-12.56-51.38a29.724,29.724,0,0,1-1.05-5.04c-.18-3.22-.07-6.46-.1-9.71q-.225-28.86-.46-57.7c-.04-4.62-.05-9.24-.09-13.86,0-.69-.11-1.38-.19-2.36a14.344,14.344,0,0,0-1.99.63c-.9.44-1.73,1.04-2.63,1.49-63.66,32.94-67.24,25.68-101.7,39.2a4.9,4.9,0,0,0-2.53,2.96c-1.74,6.64.34,31.47-12.19,120.43-.43,3.07-.57,6.16-.91,9.25a3.807,3.807,0,0,1-1.81,3.27c-5.9-4-1.67-7.65-12.71-13.53a5.664,5.664,0,0,0-2.59-.87c-3.14.07-1.46.47-21.71,1.38-.63.02-1.59-.18-1.84-.62-.46-.79-.02-1.58.61-2.36a44.045,44.045,0,0,0,4.23-6.11c8.42-15.43,14.98-50.39,3.69-71.58a31.089,31.089,0,0,0-13.03-13.33,35.53,35.53,0,0,0-14.44-3.87c-24.14-1.66-54.65,27.72-70.37,37.71-2.77,1.75-5.31,3.87-7.93,5.83a1.725,1.725,0,0,0-.71,2.2,22.812,22.812,0,0,1,1.47,4.48c3.77,13.93,11.06,47.31,21.07,92.79.17.8.34,1.59.52,2.38,6.63,30.14,14.42,65.44,23.15,103.81l9.71-.79c63.83-39.15,64.54-61.25,70.7-57.79-1.36,6.2-6.91,57.37-7.44,64.54-.02.3.03.66-.12.87-.97,1.44-.53,2.96-.36,4.83.83-.25,1.52-.41,2.18-.66,17.72-6.79,67.22-24.78,68.13-25.33.83-.51,1.6-1.12,2.36-1.66-3.26-30.43-2.94-30.57,1.42-32.02,30.06-9.97,21.04-28.11,29.17,34.91a4.118,4.118,0,0,0,.25,1.02,1.509,1.509,0,0,0,2.3.83c.03-.01,5.71-2.39,13.92-5.82l.03-.01.01-.01c21.39-8.97,59.83-25.15,59.89-25.66a6.7,6.7,0,0,0-.18-2.31c-10.27-42.54-11.98-51.13-17.37-81.38-.4-2.24.08-3.24,2.37-3.12,2.25.13,4.48.52,6.73.68,2.16.14,4.33.02,6.47.18,4.89.4,2.05-.6,28.15-49.13,1.05-1.96,2.32-3.77,3.35-5.73,2.48-4.75,4.85-9.55,7.33-14.3.79-1.51,1.89-2.86,2.68-4.36,2.47-4.72,4.91-9.45,7.28-14.21,1.81-3.66,3.49-7.41,5.23-11.12.38-.8.71-1.7,2-1.17.26,1.5.3,2.91-.9,4.15a3.192,3.192,0,0,0-.54,1.43c-2.97,11.83-35.79,113.65-31.84,114.4a77.635,77.635,0,0,0,10.55,1.14c3.85.09,7.51-.33,8.45-2.08.1-.18,1.31-2.31,3.24-5.66,8.98-15.69,33.58-58.49,34.57-60.15,4.72-8.06,20.79-38.59,17.54-25-.03.12-16.01,77.26-18.52,87.55-.32,1.31.34,2.02,1.89,2.02q14.745.015,29.5.03c3.47,0,4.1.92,2.75,4.15-.03.06-.09.1-.11.16-.58,1.46-1.49,2.87-1.67,4.38-.33,2.65-19.64,63.82-21.43,68.78-.64,1.78-.59,2.61.85,3.93,8.59,7.8,36.92,30.48,37.88,32.43.23.46,1.1.6,1.97,1.05,1.99-23.4-1.48-41,21.66-102.05,3.15-8.36,3.6-9.1,3.65-9.19a6.114,6.114,0,0,1,2.05-2.69c1.86-.99,10.78-1.02,12.99-.81,19.82,1.8,55.11-34.81,67.78-48.25,2.34-2.49,4.68-4.98,7.21-7.26a50.983,50.983,0,0,0,10.28-13.69c1.88-3.46,3.92-6.83,5.84-10.27a13.6,13.6,0,0,0,1.61-3.49,45.759,45.759,0,0,1,2.24-7.37c.6-1.46.98-2.99,1.43-4.49.33-1.11.64-2.19.92-3.26.35-1.36.67-2.7.94-4.01.28-1.29.51-2.57.71-3.83A69.643,69.643,0,0,0,587.56,177.4Zm-13.71-46.92L586.52,96.4l-52.68,10.92A82.536,82.536,0,0,1,573.85,130.48ZM549.68,348.63c.68-1.86.77-8.31.63-9.71-2.55-25.93-69.46,2-35.58,19.42C525.53,363.88,545.92,359.08,549.68,348.63ZM518.69,105.12l11.95-46.45L467.02,84.72V29.6L410.19,67.85,394.21,15.82,349.3,65.56,316.43,20.35,287.02,74.32,237.7,38.46,224.57,95.84,165.99,70.25l6.01,54.1c8.25-.87,61.61-19.12,65.45-20.12,6.34-1.65,21.57-10.76,40.38-20.2a19.83,19.83,0,0,1,3.23-1.26c1.05-.3,3.9,1.29,4.35,2.48a10.35,10.35,0,0,1,.76,3.4c.07,10.54-.45,21.14.24,31.64.57,8.65.28,17.29.45,25.92.17,8.69-.02,17.39.13,26.08.04,2.81,7.98,32.11,11.01,45.51h2.28c12.51-22.67,13-21.98,29.46-50.28,1.63-2.8,1.18-5.73.61-8.73a12.2,12.2,0,0,1-.04-5.31c1.46-5.44,13.09-34.21,13.51-36.29.47-2.27,3.04-4.16,5.43-4.29,3.07-.17,23.06,6.41,23.16,6.45.17.05.4,0,.52.09,2.1,1.72,4.59,1.37,6.99,1.29,17.29-.68,32.27-4.42,29.98,5.31-.02.11-12.16,27.19-10.54,36.33.64-.08,1.53.82,1.83-.6l.06-.11c.58,0,14.38-25.35,17.59-30.76.18-.3.36-.61.55-.9,1.11-1.71,2.36-3.03,4.73-2.78,19.28,2.01,41.31,1.32,52.56,5.03,6.73,2.23-1.21-12.27,9.37-20.75a15.851,15.851,0,0,1,4.53-2.19A72.686,72.686,0,0,1,518.69,105.12ZM167.75,126.44l-61.07-9.36,17.16,42.9c10.3,9.73,16.18,26.1,13.37,49.38-2.65,21.99-2.59,17.98-8.47,32.7-.82,2.05-.26,2.55,1.66,2.56,17.01.11,11.01-2.46,24,6.21,1.09-.75,1.37-1.98,1.54-3.41,11.9-96.74,8.82-100.68,10.13-115.8a27.124,27.124,0,0,1,.73-3.76A3.757,3.757,0,0,1,167.75,126.44ZM52.87,404.04l8.58-.69c-.52-1.99-1.12-4.35-1.77-7.01ZM27.72,347.98l21.49,2.88q-1.725-7.725-3.53-15.89Zm-6.19-58.24,15.26,4.88c-.82-3.71-1.63-7.42-2.44-11.06Z"/>
    <path class="cls-4" d="M533.02,193.2c5.01,22.99-9.19,45.64-22.03,52.71-3.55,1.94-10.81,4.74-14.55,4.29-6.94-.79-9.53-.28-8-3.53a49.1,49.1,0,0,0,3.68-9.62c.19-.81,14.84-39.12,19.34-45.9,2.2-3.33,8.12-8.57,8.86-10.34,2.07-5.07,10.88,2.37,11.26,6.23A57.122,57.122,0,0,0,533.02,193.2Zm-7.54,26.47c4.22-11.21,3.85-23.23.4-31.69-2.61-6.33-10.33,7.13-10.57,7.72-3.45,8.3-18.48,40.27-18.3,46.29.18,4.72,9.6.21,10.09-.04a.031.031,0,0,1,.02-.01c.16-.09.32-.2.48-.31h.01A43.919,43.919,0,0,0,525.48,219.67Z"/>
    <path class="cls-4" d="M254.64,248.59a7.546,7.546,0,0,1-.14,2.6,2.6,2.6,0,0,1-.75,1.25,3.032,3.032,0,0,0-.71.67l-2.79-.61a2.391,2.391,0,0,0,.22-.23,2.148,2.148,0,0,0,.31-.67,7.951,7.951,0,0,0,.35-2.61,2.2,2.2,0,0,1,.1-.99,6.046,6.046,0,0,1,.93-1.21,4.263,4.263,0,0,1,.33-.31,1.146,1.146,0,0,1,1.57.18A3.235,3.235,0,0,1,254.64,248.59Z"/>
    <path class="cls-4" d="M253.72,216.94c21.37,12.81,13.03,47.02-3.89,62.9a23.2,23.2,0,0,1-8.02,5.14,14.656,14.656,0,0,1-5.75,1.26,77.286,77.286,0,0,0-7.91.03,6.648,6.648,0,0,0-4.75,1.86c-6,6.53-12.73,7.15-18.02,3.87-14.74-9.12-12.4-25.81-12.71-30.15a7.171,7.171,0,0,0-4.8-6.52c-2.88-1.17-12.28-1.2-17.53-7.41-3.73-4.43-.91-16.11,9.25-16.17,7.67-.03,15.35-.09,23.02.06a9.394,9.394,0,0,0,5.89-1.89C222.47,219.82,238.62,207.91,253.72,216.94Zm3.63,34.86c2.87-12.84.49-25.92-11.63-28.63-6.17-1.37-13.31,1.13-19.86,5.4a60.715,60.715,0,0,0-13.85,12.66l-.01.01c-.33.43-.66.85-.97,1.26-3.48-.22-14.37-2.27-34.17-2.07-.1.01-1.94,1.26-.7,2.05,8.22,1.76,28.34,4.42,31.58,4.79-.41.31-1,.53-1.19.93a59,59,0,0,0-2.98,7.08,55.566,55.566,0,0,0-2.18,9.58c-1.01,8.61,1.52,17.01,9.52,20.54,1.16.51,4.56.06,5.25-.8,4.57-5.75,1.1-10.83.92-14.68a5.711,5.711,0,0,1,1.91-4.69c2.13-2.17,3.02-1.17,4.37.25.78.84,1.32,3.95,2.47,7.12a11.441,11.441,0,0,0,1.44,2.38,9.456,9.456,0,0,0,6.01,4.04C243.7,281.19,254.04,266.65,257.35,251.8Z"/>
    <path class="cls-4" d="M253.17,254.95a4.959,4.959,0,0,1-1.36,3.65,3.85,3.85,0,0,1-2.58,1.84,1.866,1.866,0,0,1-1.86-1.18,1.583,1.583,0,0,1,.83-1.96,5.6,5.6,0,0,0,.95-.33c.57-.38.54-1.21.38-1.87a2.466,2.466,0,0,1,.02-1.96,3.553,3.553,0,0,1,.7-.64l2.79.61C252.73,253.66,253.05,254.33,253.17,254.95Z"/>
    <path class="cls-4" d="M249.32,244.61c.75-.27,1.36.83,1.05,1.57a2.2,2.2,0,0,1-.3.51c-.36.46-.89.81-1.3,1.25-.6.62-.98,1.41-1.58,2.02-1.52,1.56-3.98,1.57-6.15,1.46a4.009,4.009,0,0,1-2.66-.75,5.228,5.228,0,0,0-.76-.73,2.413,2.413,0,0,0-.76-.24c-8.78-1.61-9.13-.17-28.96-2.41a41.955,41.955,0,0,1,3.13-4.79c1.3.1,2.59.2,3.88.32,2.01.17,4.03.36,6.04.58.84.08,1.69.17,2.53.27,1.11.13,2.22.25,3.33.38,3.04.35,6.09.69,9.15.89a11.205,11.205,0,0,0,3.22-.13c1.04-.24,2.09-.78,3.14-.56,1.26.29,2.07,1.58,3.29,2a2.71,2.71,0,0,0,2.94-.85C248.78,245.1,248.97,244.74,249.32,244.61Z"/>
    <path class="cls-4" d="M249.91,229.11c.1,6.61,3.85,4.19-.17,10.32a1.161,1.161,0,0,1-.37.42,1.526,1.526,0,0,1-.73.19,4.929,4.929,0,0,1-3.46-.64c-7.3-5.99,2.75-13.7,4.59-10.98A1.318,1.318,0,0,1,249.91,229.11Z"/>
    <path class="cls-4" d="M239.13,254.52c2.95,2.48-3.27,7.65-6.36,9.97a2.14,2.14,0,0,1-2.8-.22,1.72,1.72,0,0,1-.14-2.66c.68-.8,2.93-4.61,6.26-7.05A2.176,2.176,0,0,1,239.13,254.52Z"/>
    <path class="cls-4" d="M233.84,230.74a2.393,2.393,0,0,1,1.19,2.18,2.583,2.583,0,0,1-1.65,2.15c-9.78,3.64-9.86,6.48-12.2,6.19a4.989,4.989,0,0,1-1.15-.31,1.477,1.477,0,0,1-.28-1.49,3.681,3.681,0,0,1,.99-1.27c2.31-2.13,4.63-3.09,5.38-4.52a2.458,2.458,0,0,0-.08-2.35,2.662,2.662,0,0,1-.45-1.63,1.084,1.084,0,0,1,.54-.71,3.512,3.512,0,0,1,1.78-.35c3.43.08.87,1.39,3.57,1.72.24.03.49.06.73.07h.01a4.359,4.359,0,0,1,1.4.21A1.505,1.505,0,0,1,233.84,230.74Z"/>
    <path class="cls-4" d="M216.68,255.87a1.1,1.1,0,0,1-.63,1.13,11.1,11.1,0,0,0-1.24.63,2.525,2.525,0,0,0-.82,1.77c-.06.67.01,1.33-.05,2a9.224,9.224,0,0,1-.43,1.87,2.623,2.623,0,0,1-3.65,2.17c-.41-.06-.82-.1-1.22-.15-.99-.14-2.15-.41-2.53-1.33-.66-1.59,1.18-3.64,1.93-4.88a11.244,11.244,0,0,0,1.08-3.48c.78-2.98,4.96-1.66,6.94-.4A1.343,1.343,0,0,1,216.68,255.87Z"/>
    <path class="cls-4" d="M123.75,287.66c3.71,7.87-7.16,26.17-14.21,32.93-2.57,2.47-4.95,5.14-7.27,7.85a2.579,2.579,0,0,1-3.14.98c-.67-.32-1.04-1.44-1.38-2.25-.04-.1-3.62-14.77-3.95-25.14a3.349,3.349,0,0,1,1.65-3.13c2.2-1.49,18.7-12.62,22.17-12.58a4.644,4.644,0,0,0,1.96-.6C121.51,284.83,122.83,285.71,123.75,287.66Zm-18.18,29.27c4.91-6,15.84-22.58,12.99-24.49-1.77-1.17-.4-.87-17.47,8.41a3.341,3.341,0,0,0-2,3.49,12.185,12.185,0,0,1,.02,1.6c-.24,3.06,2.79,13.54,5.44,11.97A4.3,4.3,0,0,0,105.57,316.93Z"/>
    <path class="cls-4" d="M99.9,222.03c-.08,4.19,1.74,9.26-10.44,28.97-1.27,2.06-2.73,3.99-4.16,5.93-.24.32-.91.65-1.18.52a1.93,1.93,0,0,1-.96-1.15c-.02-.11-2.6-22.46-3.96-29.94-.02-.11-.11-.23-.09-.32.24-1.37.4-10.62,10.88-13.6a7.061,7.061,0,0,1,5.74.9C99.24,215.42,99.96,218.43,99.9,222.03ZM88.17,240.7c1.05-.68,6.39-11.11,6.19-19.82-.1-4.6-9.74-1.78-9.07,5.18.48,4.86-.56-2.19,1.53,14.9A4.536,4.536,0,0,0,88.17,240.7Z"/>
  </g>
</svg>
